<?xml version="1.0" encoding="iso-8859-1"?>
<!-- Generator: Adobe Illustrator 19.0.0, SVG Export Plug-In . SVG Version: 6.00 Build 0)  -->
<svg version="1.1" id="Layer_1" xmlns="http://www.w3.org/2000/svg" xmlns:xlink="http://www.w3.org/1999/xlink" x="0px" y="0px"
	 viewBox="0 0 503.607 503.607" style="enable-background:new 0 0 503.607 503.607;" xml:space="preserve">
<g>
	<g>
		<g>
			<path d="M251.803,268.59c9.258,0,16.787-7.529,16.787-16.787c0-9.258-7.529-16.787-16.787-16.787
				c-9.258,0-16.787,7.529-16.787,16.787C235.016,261.061,242.545,268.59,251.803,268.59z"/>
			<path d="M251.803,0C112.959,0,0,112.959,0,251.803s112.959,251.803,251.803,251.803s251.803-112.959,251.803-251.803
				S390.648,0,251.803,0z M360.918,75.541c9.266,0,16.787,7.512,16.787,16.787c0,9.266-7.521,16.787-16.787,16.787
				s-16.787-7.521-16.787-16.787C344.131,83.053,351.652,75.541,360.918,75.541z M58.754,159.475
				c0-9.275,7.521-16.787,16.787-16.787s16.787,7.512,16.787,16.787c0,9.266-7.521,16.787-16.787,16.787
				S58.754,168.742,58.754,159.475z M251.803,419.672c-41.959,0-81.492-15.519-112.43-43.57l-24.324,24.324
				c-1.637,1.637-3.785,2.459-5.934,2.459c-2.149,0-4.297-0.823-5.934-2.459c-3.282-3.282-3.282-8.586,0-11.868L222.989,268.75
				c-2.954-4.994-4.759-10.735-4.759-16.946c0-18.516,15.058-33.574,33.574-33.574s33.574,15.058,33.574,33.574
				c0,18.516-15.058,33.574-33.574,33.574c-6.211,0-11.952-1.805-16.946-4.759l-24.173,24.173
				c11.734,9.149,26.036,14.16,41.12,14.16c37.023,0,67.148-30.124,67.148-67.148c0-37.023-30.124-67.148-67.148-67.148
				c-37.023,0-67.148,30.124-67.148,67.148c0,3.634,0.294,7.277,0.873,10.828c0.747,4.574-2.359,8.897-6.933,9.636
				c-4.583,0.739-8.889-2.359-9.636-6.933c-0.722-4.44-1.091-8.998-1.091-13.53c0-46.281,37.653-83.934,83.934-83.934
				s83.934,37.653,83.934,83.934c0,46.281-37.653,83.934-83.934,83.934c-19.574,0-38.14-6.681-53.105-18.961l-47.448,47.448
				c27.757,24.895,63.077,38.66,100.553,38.66c83.305,0,151.082-67.777,151.082-151.082s-67.777-151.082-151.082-151.082
				s-151.082,67.777-151.082,151.082c0,8.192,0.663,16.418,1.972,24.45c0.747,4.583-2.359,8.897-6.933,9.644
				c-4.633,0.739-8.889-2.375-9.636-6.941c-1.452-8.922-2.191-18.063-2.191-27.153c0-92.563,75.306-167.869,167.869-167.869
				s167.869,75.306,167.869,167.869C419.672,344.366,344.366,419.672,251.803,419.672z M352.525,327.344
				c0,9.266-7.521,16.787-16.787,16.787c-9.266,0-16.787-7.521-16.787-16.787c0-9.275,7.521-16.787,16.787-16.787
				C345.004,310.557,352.525,318.069,352.525,327.344z"/>
		</g>
	</g>
</g>
<g>
</g>
<g>
</g>
<g>
</g>
<g>
</g>
<g>
</g>
<g>
</g>
<g>
</g>
<g>
</g>
<g>
</g>
<g>
</g>
<g>
</g>
<g>
</g>
<g>
</g>
<g>
</g>
<g>
</g>
</svg>
